<?xml version="1.0" encoding="UTF-8"?>
<svg width="29px" height="29px" viewBox="0 0 29 29" version="1.1" xmlns="http://www.w3.org/2000/svg" xmlns:xlink="http://www.w3.org/1999/xlink">
    <!-- Generator: Sketch 59.1 (86144) - https://sketch.com -->
    <title>DH-logocircle</title>
    <desc>Created with Sketch.</desc>
    <defs>
        <polygon id="path-1" points="0 0.653 28.352 0.653 28.352 28.94 0 28.94"></polygon>
    </defs>
    <g id="Icons" stroke="none" stroke-width="1" fill="none" fill-rule="evenodd">
        <g id="logo-copy" transform="translate(-15.000000, -15.000000)">
            <g id="DH-logocircle" transform="translate(15.000000, 15.000000)">
                <g id="Group-3">
                    <mask id="mask-2" fill="white">
                        <use xlink:href="#path-1"></use>
                    </mask>
                    <g id="Clip-2"></g>
                    <path d="M14.176,0.653 C6.35,0.653 0,6.994 0,14.822 C0,22.652 6.35,28.999 14.176,28.999 C22.008,28.999 28.352,22.652 28.352,14.822 C28.352,6.994 22.008,0.653 14.176,0.653 L14.176,0.653 Z M12.777,20.162 C12.777,21.637 11.875,22.178 10.761,22.178 L10.715,22.178 C9.602,22.178 8.699,21.554 8.699,20.162 L8.699,14.922 C8.699,13.483 9.602,12.906 10.715,12.906 L10.761,12.906 C11.875,12.906 12.777,13.5 12.777,14.922 L12.777,20.162 Z M18.889,20.162 C18.889,21.637 17.987,22.178 16.873,22.178 L16.827,22.178 C15.714,22.178 14.811,21.554 14.811,20.162 L14.811,8.671 C14.811,7.233 15.714,6.655 16.827,6.655 L16.873,6.655 C17.987,6.655 18.889,7.25 18.889,8.671 L18.889,20.162 L18.889,20.162 Z" id="Fill-1" fill="#000000" mask="url(#mask-2)"></path>
                </g>
                <path d="M26.113,1.203 L26.113,0.871 L24.743,0.871 L24.743,1.203 L25.242,1.203 L25.242,2.779 L25.614,2.779 L25.614,1.203 L26.113,1.203 Z M28.146,2.779 L28.146,0.871 L27.778,0.871 L27.282,1.903 L26.783,0.871 L26.416,0.871 L26.416,2.779 L26.788,2.779 L26.788,1.667 L27.156,2.39 L27.408,2.39 L27.773,1.667 L27.773,2.779 L28.146,2.779 L28.146,2.779 Z" id="Fill-4" fill="#000000"></path>
            </g>
        </g>
    </g>
</svg>