<?xml version="1.0" encoding="UTF-8"?>
<svg width="24px" height="24px" viewBox="0 0 24 24" version="1.1" xmlns="http://www.w3.org/2000/svg" xmlns:xlink="http://www.w3.org/1999/xlink">
    <!-- Generator: Sketch 62 (91390) - https://sketch.com -->
    <title>instagram</title>
    <desc>Created with Sketch.</desc>
    <defs>
        <polygon id="path-1" points="0 0.6834 16.9577 0.6834 16.9577 17.6404 0 17.6404"></polygon>
    </defs>
    <g id="Icons" stroke="none" stroke-width="1" fill="none" fill-rule="evenodd">
        <g id="social" transform="translate(-18.000000, -18.000000)">
            <g id="instagram" transform="translate(22.000000, 21.000000)">
                <g id="Group-11">
                    <mask id="mask-2" fill="white">
                        <use xlink:href="#path-1"></use>
                    </mask>
                    <g id="Clip-10"></g>
                    <path d="M8.4787,0.6834 C6.1757,0.6834 5.8877,0.6934 4.9827,0.7344 C4.0807,0.7754 3.4637,0.9184 2.9247,1.1284 C2.3677,1.3454 1.8947,1.6354 1.4227,2.1064 C0.9517,2.5774 0.6617,3.0504 0.4447,3.6084 C0.2357,4.1474 0.0917,4.7644 0.0507,5.6664 C0.0097,6.5704 -0.0003,6.8594 -0.0003,9.1624 C-0.0003,11.4644 0.0097,11.7534 0.0507,12.6574 C0.0917,13.5604 0.2357,14.1764 0.4447,14.7154 C0.6617,15.2734 0.9517,15.7464 1.4227,16.2174 C1.8947,16.6884 2.3677,16.9784 2.9247,17.1954 C3.4637,17.4054 4.0807,17.5484 4.9827,17.5894 C5.8877,17.6304 6.1757,17.6404 8.4787,17.6404 C10.7817,17.6404 11.0697,17.6304 11.9747,17.5894 C12.8767,17.5484 13.4937,17.4054 14.0327,17.1954 C14.5897,16.9784 15.0627,16.6884 15.5347,16.2174 C16.0057,15.7464 16.2957,15.2734 16.5127,14.7154 C16.7217,14.1764 16.8647,13.5604 16.9067,12.6574 C16.9477,11.7534 16.9577,11.4644 16.9577,9.1624 C16.9577,6.8594 16.9477,6.5704 16.9067,5.6664 C16.8647,4.7644 16.7217,4.1474 16.5127,3.6084 C16.2957,3.0504 16.0057,2.5774 15.5347,2.1064 C15.0627,1.6354 14.5897,1.3454 14.0327,1.1284 C13.4937,0.9184 12.8767,0.7754 11.9747,0.7344 C11.0697,0.6934 10.7817,0.6834 8.4787,0.6834 M8.4787,2.2104 C10.7427,2.2104 11.0107,2.2194 11.9047,2.2604 C12.7317,2.2984 13.1807,2.4364 13.4787,2.5524 C13.8747,2.7064 14.1577,2.8904 14.4547,3.1864 C14.7507,3.4834 14.9347,3.7664 15.0887,4.1614 C15.2047,4.4604 15.3427,4.9094 15.3797,5.7354 C15.4207,6.6294 15.4297,6.8984 15.4297,9.1624 C15.4297,11.4254 15.4207,11.6944 15.3797,12.5884 C15.3427,13.4144 15.2047,13.8634 15.0887,14.1624 C14.9347,14.5584 14.7507,14.8404 14.4547,15.1374 C14.1577,15.4344 13.8747,15.6184 13.4787,15.7714 C13.1807,15.8874 12.7317,16.0254 11.9047,16.0634 C11.0107,16.1044 10.7427,16.1134 8.4787,16.1134 C6.2147,16.1134 5.9467,16.1044 5.0527,16.0634 C4.2257,16.0254 3.7767,15.8874 3.4787,15.7714 C3.0827,15.6184 2.7997,15.4344 2.5027,15.1374 C2.2067,14.8404 2.0227,14.5584 1.8687,14.1624 C1.7527,13.8634 1.6147,13.4144 1.5767,12.5884 C1.5367,11.6944 1.5277,11.4254 1.5277,9.1624 C1.5277,6.8984 1.5367,6.6294 1.5767,5.7354 C1.6147,4.9094 1.7527,4.4604 1.8687,4.1614 C2.0227,3.7664 2.2067,3.4834 2.5027,3.1864 C2.7997,2.8904 3.0827,2.7064 3.4787,2.5524 C3.7767,2.4364 4.2257,2.2984 5.0527,2.2604 C5.9467,2.2194 6.2147,2.2104 8.4787,2.2104" id="Fill-9" fill="#000000" mask="url(#mask-2)"></path>
                </g>
                <path d="M8.4787,11.9881 C6.9177,11.9881 5.6527,10.7231 5.6527,9.1621 C5.6527,7.6011 6.9177,6.3361 8.4787,6.3361 C10.0397,6.3361 11.3047,7.6011 11.3047,9.1621 C11.3047,10.7231 10.0397,11.9881 8.4787,11.9881 M8.4787,4.8081 C6.0737,4.8081 4.1247,6.7571 4.1247,9.1621 C4.1247,11.5671 6.0737,13.5161 8.4787,13.5161 C10.8837,13.5161 12.8327,11.5671 12.8327,9.1621 C12.8327,6.7571 10.8837,4.8081 8.4787,4.8081" id="Fill-12" fill="#000000"></path>
                <path d="M14.0222,4.6361 C14.0222,5.1981 13.5662,5.6541 13.0042,5.6541 C12.4422,5.6541 11.9872,5.1981 11.9872,4.6361 C11.9872,4.0741 12.4422,3.6181 13.0042,3.6181 C13.5662,3.6181 14.0222,4.0741 14.0222,4.6361" id="Fill-14" fill="#000000"></path>
            </g>
        </g>
    </g>
</svg>