<?xml version="1.0" encoding="UTF-8"?>
<svg width="24px" height="24px" viewBox="0 0 24 24" version="1.1" xmlns="http://www.w3.org/2000/svg" xmlns:xlink="http://www.w3.org/1999/xlink">
    <!-- Generator: Sketch 62 (91390) - https://sketch.com -->
    <title>pinterest</title>
    <desc>Created with Sketch.</desc>
    <g id="Icons" stroke="none" stroke-width="1" fill="none" fill-rule="evenodd">
        <g id="social" transform="translate(-18.000000, -18.000000)" fill="#000000">
            <path d="M30.257,21 C25.433,21 23,24.458 23,27.342 C23,29.089 23.661,30.642 25.079,31.221 C25.312,31.316 25.521,31.225 25.588,30.967 C25.635,30.789 25.745,30.339 25.795,30.152 C25.862,29.897 25.837,29.808 25.65,29.586 C25.24,29.104 24.98,28.479 24.98,27.595 C24.98,25.029 26.899,22.732 29.978,22.732 C32.704,22.732 34.202,24.398 34.202,26.624 C34.202,29.551 32.906,32.021 30.984,32.021 C29.92,32.021 29.126,31.143 29.381,30.065 C29.687,28.78 30.277,27.392 30.277,26.463 C30.277,25.632 29.832,24.939 28.908,24.939 C27.822,24.939 26.949,26.062 26.949,27.567 C26.949,28.525 27.274,29.173 27.274,29.173 C27.274,29.173 26.163,33.882 25.968,34.706 C25.579,36.348 25.909,38.361 25.938,38.564 C25.953,38.685 26.109,38.713 26.179,38.622 C26.278,38.492 27.571,36.895 28.012,35.3 C28.136,34.848 28.726,32.509 28.726,32.509 C29.079,33.182 30.111,33.774 31.206,33.774 C34.47,33.774 36.685,30.799 36.685,26.816 C36.685,23.804 34.134,21 30.257,21" id="pinterest"></path>
        </g>
    </g>
</svg>