<?xml version="1.0" encoding="UTF-8"?>
<svg width="24px" height="24px" viewBox="0 0 24 24" version="1.1" xmlns="http://www.w3.org/2000/svg" xmlns:xlink="http://www.w3.org/1999/xlink">
    <!-- Generator: Sketch 62 (91390) - https://sketch.com -->
    <title>spotify</title>
    <desc>Created with Sketch.</desc>
    <g id="Icons" stroke="none" stroke-width="1" fill="none" fill-rule="evenodd">
        <g id="social" transform="translate(-18.000000, -18.000000)" fill="#000000" fill-rule="nonzero">
            <g id="spotify-logo" transform="translate(20.000000, 20.000000)">
                <path d="M10,0 C4.47729029,0 0,4.47686239 0,10 C0,15.5229343 4.47729029,20 10,20 C15.5227097,20 20,15.522731 20,9.99979668 C20,4.47686239 15.5227097,0 10,0 Z M13.8486561,14.7497154 C13.6868215,14.7497154 13.5764242,14.6938029 13.4253649,14.6014964 C11.9759688,13.7245852 10.1685439,13.263663 8.25133168,13.263663 C7.18110845,13.263663 6.10417599,13.4013094 5.09697882,13.6107271 C4.93331436,13.6463077 4.72756475,13.7091331 4.60395234,13.7091331 C4.22437279,13.7091331 3.97145529,13.4078155 3.97145529,13.0804733 C3.97145529,12.6608247 4.21339406,12.4510003 4.51530923,12.3934613 C5.75041679,12.1118656 6.98044159,11.951041 8.25804091,11.951041 C10.4460619,11.951041 12.3962103,12.4534401 14.0743301,13.459255 C14.3239946,13.6050342 14.4701745,13.753863 14.4701745,14.1241054 C14.4703777,14.4849951 14.1772049,14.7497154 13.8486561,14.7497154 Z M14.9381938,12.1029196 C14.7212621,12.1029196 14.5848412,12.0150862 14.4370349,11.9292859 C12.8105558,10.9639314 10.5558492,10.3226659 8.0872606,10.3226659 C6.82104664,10.3226659 5.7280527,10.5001627 4.82352702,10.7410947 C4.62855284,10.794974 4.51937543,10.8527163 4.33680316,10.8527163 C3.90700606,10.8527163 3.55568658,10.5017892 3.55568658,10.0687215 C3.55568658,9.64358328 3.76204611,9.35121178 4.17761152,9.23410052 C5.30171187,8.92505693 6.4500061,8.68737801 8.12060342,8.68737801 C10.7382182,8.68737801 13.2704428,9.33921601 15.2610499,10.5306604 C15.5948847,10.7215761 15.7176839,10.9651513 15.7176839,11.320958 C15.7176839,11.7532124 15.3728703,12.1029196 14.9381938,12.1029196 Z M16.1787907,9.02468282 C15.9754808,9.02468282 15.8545114,8.97507319 15.6638068,8.87056766 C13.8541455,7.78525537 11.0448095,7.18770332 8.32858944,7.18770332 C6.9725125,7.18770332 5.59549465,7.32575634 4.33395682,7.66794079 C4.18859025,7.70433474 4.00540804,7.77712264 3.8214126,7.77712264 C3.28792746,7.77712264 2.87846135,7.35503416 2.87846135,6.82173064 C2.87846135,6.27805791 3.21514252,5.97308068 3.57825397,5.86593201 C5.00386289,5.44608003 6.59496605,5.25048796 8.32472655,5.25048796 C11.2611312,5.25048796 14.3506282,5.85454619 16.6071646,7.17957059 C16.9113162,7.3521877 17.1221486,7.61182498 17.1221486,8.0879961 C17.121742,8.63288874 16.6838125,9.02468282 16.1787907,9.02468282 Z" id="Shape"></path>
            </g>
        </g>
    </g>
</svg>